# xmcd
#
# Track frame offsets: 
#        150
#        29161
#        44576
#        63338
#        80692
#        100243
#        123635
#        139655
#        158830
#        175761
#        190781
#        207751
#        228498
#        246412
#        265416
#        285364
#        306274
#        319067
#        333104
#
# Disc length: 4792 seconds
#
# Revision: 2
# Processed by: cddbd v1.5.2PL0 Copyright (c) Steve Scherf et al.
# Submitted via: ExactAudioCopy v0.95b4
#
DISCID=1712b613
DTITLE=Various Artist - Made In Turkey 2 - Turquoise Sensations [CD 1)
DYEAR=2006
DGENRE=Pop-Folk
TTITLE0=Birol Yayla and A. Senol Filiz - Bab-I Esra 
TTITLE1=Fikret Kizilok - Yeter Ki 
TTITLE2=Hüsnü Senlendirici - Kimseye Etmem Sikayet 
TTITLE3=Halil Necipoglu - Nihansin Dideden 
TTITLE4=Zerrin Özer - Alli Turnam
TTITLE5=Sagopa Kajmer Fea.t Tact Allstars - Rak Benadam 
TTITLE6=Sufi Trance Project - Eternal Love 
TTITLE7=Korhan Feat. Funda Arar -  Tükenecegiz 
TTITLE8=Baba Zula - Gerekli Seyler (Dub)
TTITLE9=Hüseyin Karadayi Feat. Enoi and Funky C  - Eyes Don't Lie
TTITLE10=Ajda Pekkan - Dert Bende 
TTITLE11=Beyza Durmaz - Oldugu Kadar
TTITLE12=Sertab Erener - Yavas Yavas
TTITLE13=Zeynep Casalini - Refakatci
TTITLE14=Seden Gürel - Gölgeler 
TTITLE15=Aysegül - Düriyemin Gügümleri Kalayli
TTITLE16=Mustafa Kandirali Feat. Özel Turkbas - Tin Tin
TTITLE17=Eartha Kitt - Uska Dara-A Turkish Tale
TTITLE18=Hakan Tuna Feat. Pembe Cengiz - Karanliklar Icinde 
EXTD=
EXTT0=
EXTT1=
EXTT2=
EXTT3=
EXTT4=
EXTT5=
EXTT6=
EXTT7=
EXTT8=
EXTT9=
EXTT10=
EXTT11=
EXTT12=
EXTT13=
EXTT14=
EXTT15=
EXTT16=
EXTT17=
EXTT18=
PLAYORDER=
